<svg id="Group_77" data-name="Group 77" xmlns="http://www.w3.org/2000/svg" width="155.048" height="76.695" viewBox="0 0 155.048 76.695">
  <path id="Path_89" data-name="Path 89" d="M226.268,98.742c-1.931,0-3.862.018-5.793,0a5.059,5.059,0,0,1-4.457-2.093,3.754,3.754,0,0,1,.242-4.735c.471-.541.383-.843-.046-1.319-2.248-2.491-4.463-5.008-6.687-7.518-.177-.2-.341-.411-.587-.708l2.97-2.2a3.97,3.97,0,0,0,.38.634c2.589,2.913,5.172,5.831,7.806,8.711a2.09,2.09,0,0,0,1.348.584c3.564.048,7.13.009,10.694.041a1.235,1.235,0,0,0,1.334-.836c1.878-4.2,3.755-8.391,5.71-12.556A18.466,18.466,0,0,1,241.419,73c1.834-2.282,4.918-2.89,8.382-1.891a13.673,13.673,0,0,1,6.555,4.591,38.965,38.965,0,0,1,5.811,9.48,78.431,78.431,0,0,1,5.088,14.418c.515,2.122.831,4.322-.3,6.418a6.734,6.734,0,0,1-6.383,3.686c-9.1,0-18.207.013-27.311-.019a1.353,1.353,0,0,0-1.548,1.011q-3.442,9.381-6.973,18.735a6.563,6.563,0,0,1-7.98,4.033,5.01,5.01,0,0,1-3.749-4.005,8.206,8.206,0,0,1,.693-4.266q4.025-10.534,8.009-21.082a15.639,15.639,0,0,1,1.013-2.522A7.843,7.843,0,0,1,226.268,98.742Zm13.429-.457c1.265,0,2.346.027,3.424-.02a.986.986,0,0,0,.708-.422q3.564-7.136,7.057-14.3a.992.992,0,0,0-.089-.959,4.35,4.35,0,0,0-1.835-1.212c-.846-.16-1.245.627-1.569,1.285q-2.348,4.769-4.711,9.532C241.7,94.168,240.74,96.153,239.7,98.285Z" transform="translate(-112.674 -56.986)" fill="#2d0861"/>
  <path id="Path_90" data-name="Path 90" d="M66.743,94.956l5.415-5.319a16.785,16.785,0,0,0,1.29-1.286c.538-.658.95-.691,1.636-.09,2.8,2.456,5.662,4.858,8.505,7.276q10.589,9.008,21.171,18.024a2.846,2.846,0,0,0,2.018.739q25.015-.031,50.032-.015c1.4,0,1.4,0,1.4,1.278,0,2.649-.024,5.3.016,7.948.01.7-.242.892-.986.892q-27.594-.023-55.188-.042a2.826,2.826,0,0,1-1.617-.707Q85.916,111.331,71.444,98.963Z" transform="translate(-66.743 -63.53)" fill="#2d0861"/>
  <path id="Path_91" data-name="Path 91" d="M97.525,89.765c.01-4.427,5.043-7.2,9.177-5.259a23.449,23.449,0,0,1,4.241,2.924q5.489,4.271,10.888,8.637a1.444,1.444,0,0,0,1.764.2c5.427-2.488,10.88-4.927,16.307-7.415a6.913,6.913,0,0,1,6.851.367c5.4,3.239,10.785,6.492,16.223,9.675,3.222,1.886,3.959,5.3,2.136,7.96a6.408,6.408,0,0,1-8.309,1.724c-4.508-2.622-8.974-5.3-13.436-7.99a1.417,1.417,0,0,0-1.538-.08q-8.791,4.1-17.611,8.151a6.573,6.573,0,0,1-7.274-.768q-8.365-6.569-16.685-13.183A6.621,6.621,0,0,1,97.525,89.765Z" transform="translate(-76.686 -62.023)" fill="#2d0861"/>
  <path id="Path_92" data-name="Path 92" d="M241.237,63.844c-4.694.022-8.395-3.43-8.388-7.826.006-4.011,3.8-7.4,8.32-7.428,4.61-.026,8.353,3.381,8.39,7.637C249.595,60.355,245.807,63.823,241.237,63.844Z" transform="translate(-120.397 -48.591)" fill="#2d0861"/>
  <path id="Path_93" data-name="Path 93" d="M87.313,62.082c4.443,0,8.131,3.36,8.1,7.382s-3.733,7.4-8.127,7.391c-4.428-.012-8.082-3.36-8.087-7.411S82.842,62.081,87.313,62.082Z" transform="translate(-70.768 -53.727)" fill="#2d0861"/>
</svg>
