<svg id="Group_82" data-name="Group 82" xmlns="http://www.w3.org/2000/svg" width="78.514" height="82.406" viewBox="0 0 78.514 82.406">
  <path id="Path_126" data-name="Path 126" d="M164.818,1251.254a2.306,2.306,0,0,0,.356.142c.635.132,1.509-.22,1.714.756.278,1.32.044,2-1.154,2.5a2.38,2.38,0,0,0-1.622,2.909,26.2,26.2,0,0,1,.262,2.928,5.608,5.608,0,0,1-5.442,5.7c-3.6.286-7.189.6-10.787.857-1.066.076-1.377.5-1.183,1.416.284,1.352.494,2.718.758,4.074.137.7-.168,1.036-.93,1.048-.2,0-.4,0-.6,0H112.975c-1.632,0-1.691-.016-1.643-1.53.181-5.595-.543-11.045-3.537-16.017-1.525-2.533-3.468-4.851-5.145-7.311-5.309-7.782-8.635-16.166-8.567-25.432a32.265,32.265,0,0,1,6.2-19.566c3.7-4.974,9.133-7.893,15.143-9.911a45.792,45.792,0,0,1,38.935,3.9c9,5.184,13.1,14.771,10.942,24.3-1.2,5.316.714,9.78,4.469,13.74.545.575,1.158,1.1,1.727,1.653a3.085,3.085,0,0,1-.767,5.2q-2.194,1.2-4.455,2.295c-.717.349-1.007.775-.68,1.489.091.2.109.424.191.628.566,1.419,1.241,2.854-.892,3.736-.054.023-.086.121-.1.188A1.452,1.452,0,0,0,164.818,1251.254Zm-49.759-10.671a6.7,6.7,0,0,0,1.146-.479,10,10,0,0,0,1.768-1.283,1.628,1.628,0,0,1,2.344-.169,4.243,4.243,0,0,0,1.715.724c2.672.349,3.574,1.789,3.5,4.135-.039,1.276.916,1.907,2.36,1.939,1.111.024,2.223.007,3.334.006,2.024,0,2.817-.459,2.84-2.274.027-2.17.907-3.338,3.281-3.749,1.123-.195,2.208-1.3,3.2-1.184,1.013.112,1.883,1.225,2.84,1.87a2.193,2.193,0,0,0,2.9-.148c.644-.538,1.243-1.121,1.862-1.685,2.362-2.156,2.433-2.441.308-4.746-.959-1.04-1.516-1.931-.4-3.14a2.3,2.3,0,0,0,.576-1.183c.336-2.513,2.067-3.185,4.557-3.154a1.919,1.919,0,0,0,2.041-2.1c.021-1.125.013-2.251,0-3.376-.013-1.531-.644-2.3-2.3-2.321-2.305-.023-3.965-.6-4.2-2.973a.682.682,0,0,0-.1-.2c-.461-.944-1.384-1.946-1.254-2.817.134-.9,1.306-1.662,2-2.5a1.748,1.748,0,0,0-.165-2.73c-.843-.819-1.728-1.6-2.6-2.391-1.308-1.179-2.264-1.316-3.59-.13-1.594,1.426-3.119,2.037-5.033.591a.687.687,0,0,0-.321-.137c-2.809-.286-3.7-1.864-3.648-4.265.026-1.156-.906-1.791-2.216-1.816q-2.024-.04-4.048,0a2.065,2.065,0,0,0-2.248,1.834,13.613,13.613,0,0,0-.266,2.27c.007.815-.424,1.087-1.2,1.316a21.874,21.874,0,0,0-3.728,1.395,1.882,1.882,0,0,1-2.354-.188c-3.263-2.435-3.3-2.4-6.265.3-2.725,2.478-2.765,2.577-.342,5.25.788.869,1.221,1.589.324,2.6a3,3,0,0,0-.73,1.474c-.346,2.462-2.013,3.168-4.479,3.129a1.87,1.87,0,0,0-2.1,1.929,38.483,38.483,0,0,0-.008,3.919c.058,1.185.811,1.836,2.1,1.972.867.091,1.732.2,2.6.25a1.1,1.1,0,0,1,1.141.882,7.263,7.263,0,0,0,1.025,2.532c1.427,1.721.847,3.014-.6,4.369a3.058,3.058,0,0,0-.9,1.8C109.62,1237.061,113.547,1240.549,115.059,1240.583Z" transform="translate(-94.082 -1191.183)" fill="#2d0861"/>
  <ellipse id="Ellipse_11" data-name="Ellipse 11" cx="14.096" cy="12.895" rx="14.096" ry="12.895" transform="translate(21.586 18.47)" fill="#2d0861"/>
</svg>
