<svg id="Component_7_1" data-name="Component 7 – 1" xmlns="http://www.w3.org/2000/svg" width="73.529" height="95.482" viewBox="0 0 73.529 95.482">
  <g id="Group_111" data-name="Group 111" transform="translate(-1598.948 -45.293)">
    <path id="Path_155" data-name="Path 155" d="M100.3,44.532c2.256,0,4.022,1.046,4.022,3.859v4.235c0,2.812-1.766,3.859-4.022,3.859H97.411c-.67,0-1.112-.36-1.112-.768V45.3c0-.409.442-.768,1.112-.768ZM98.85,46.756v7.5H100.3c.916,0,1.472-.523,1.472-1.635V48.391c0-1.112-.556-1.635-1.472-1.635Z" transform="translate(1512.18 69.936)" fill="#fff"/>
    <path id="Path_156" data-name="Path 156" d="M152.784,52.724V48.391c0-2.812,1.75-3.859,4.006-3.859s4.022,1.046,4.022,3.859v4.333c0,2.812-1.766,3.859-4.022,3.859S152.784,55.536,152.784,52.724Zm5.478-4.333c0-1.128-.556-1.635-1.472-1.635s-1.455.507-1.455,1.635v4.333c0,1.128.54,1.635,1.455,1.635s1.472-.507,1.472-1.635Z" transform="translate(1465.213 69.936)" fill="#fff"/>
    <path id="Path_157" data-name="Path 157" d="M215.8,55.8l-3.107-5.657V55.7c0,.523-.638.785-1.275.785s-1.275-.261-1.275-.785V45.317c0-.54.638-.785,1.275-.785.916,0,1.259.082,1.88,1.275l2.649,5.052V45.3c0-.54.638-.768,1.275-.768s1.275.229,1.275.768V55.7c0,.523-.638.785-1.275.785A1.427,1.427,0,0,1,215.8,55.8Z" transform="translate(1417.518 69.936)" fill="#fff"/>
    <path id="Path_158" data-name="Path 158" d="M265.366,54.954a.844.844,0,0,1,.033-.18L268.44,44.8c.18-.572.915-.85,1.668-.85s1.488.278,1.668.85l3.058,9.974a.846.846,0,0,1,.033.18c0,.6-.932,1.046-1.635,1.046-.409,0-.736-.131-.834-.474l-.556-2.044h-3.45l-.556,2.044c-.1.343-.425.474-.834.474C266.3,56,265.366,55.559,265.366,54.954ZM271.3,51.52l-1.193-4.382-1.194,4.382Z" transform="translate(1371.598 70.42)" fill="#fff"/>
    <g id="Group_110" data-name="Group 110" transform="translate(1598.948 45.293)">
      <g id="donation-svgrepo-com" transform="translate(0 0)">
        <path id="Path_152" data-name="Path 152" d="M151.612,14.289c5.7,0,8.25,3.192,9.256,5.067a.338.338,0,0,0,.595,0c1-1.875,3.543-5.067,9.238-5.067,6.487,0,12.194,4.428,12.194,12.515a16.98,16.98,0,0,1-2.518,9.2c-3.772,6.375-16.2,14.64-18.749,16.269a.856.856,0,0,1-.922,0c-2.555-1.621-14.982-9.845-18.783-16.271a16.971,16.971,0,0,1-2.513-9.2C139.409,18.717,145.125,14.289,151.612,14.289Z" transform="translate(-124.387 -11.624)" fill="#b90303"/>
        <g id="Group_108" data-name="Group 108" transform="translate(0 0)">
          <path id="Path_153" data-name="Path 153" d="M149.543,43.453a3.519,3.519,0,0,1-1.887-.548c-1.557-.988-15.329-9.86-19.65-17.164a19.668,19.668,0,0,1-2.884-10.561,14.99,14.99,0,0,1,4.5-11.226A14.961,14.961,0,0,1,139.99,0a12.921,12.921,0,0,1,9.55,3.709A12.893,12.893,0,0,1,159.078,0,14.947,14.947,0,0,1,169.44,3.954a15,15,0,0,1,4.5,11.225,19.674,19.674,0,0,1-2.889,10.561C166.756,33,152.993,41.907,151.438,42.9A3.516,3.516,0,0,1,149.543,43.453ZM139.99,5.329c-4.748,0-9.538,3.046-9.538,9.85a14.245,14.245,0,0,0,2.142,7.847c2.815,4.758,11.81,11.388,16.947,14.751,5.137-3.38,14.126-10.027,16.921-14.751a14.248,14.248,0,0,0,2.146-7.847c0-6.8-4.786-9.85-9.529-9.85-4.078,0-6,1.989-6.888,3.658a3,3,0,0,1-5.294,0C146,7.321,144.076,5.329,139.99,5.329Z" transform="translate(-112.765 0)" fill="#fff"/>
          <path id="Path_154" data-name="Path 154" d="M125.869,287.025H65.378a6.526,6.526,0,0,1-6.519-6.519V241.971a6.526,6.526,0,0,1,6.519-6.519H83.522a2.665,2.665,0,0,1,2.665,2.665v8.434h21.538a2.665,2.665,0,0,1,0,5.329h-24.2a2.665,2.665,0,0,1-2.665-2.665v-8.434H65.378a1.191,1.191,0,0,0-1.189,1.189v38.535a1.191,1.191,0,0,0,1.189,1.189h60.491a1.19,1.19,0,0,0,1.189-1.189V241.971a1.191,1.191,0,0,0-1.189-1.189H107.725a2.665,2.665,0,1,1,0-5.329h18.144a6.526,6.526,0,0,1,6.519,6.519v38.535A6.526,6.526,0,0,1,125.869,287.025Z" transform="translate(-58.859 -191.543)" fill="#fff"/>
        </g>
      </g>
      <path id="Path_159" data-name="Path 159" d="M324.636,44.532c.54,0,.768.589.768,1.128,0,.621-.278,1.161-.768,1.161h-2.256V55.7c0,.523-.638.785-1.275.785s-1.275-.261-1.275-.785V46.821h-2.256c-.491,0-.768-.54-.768-1.161,0-.54.229-1.128.768-1.128Z" transform="translate(-270.121 24.643)" fill="#fff"/>
    </g>
    <path id="Path_160" data-name="Path 160" d="M376.42,49.519h2.452c.491,0,.768.474.768,1,0,.442-.229.965-.768.965H376.42v2.779H380.8c.491,0,.768.523.768,1.128,0,.523-.229,1.1-.768,1.1h-5.821c-.556,0-1.112-.261-1.112-.785V45.317c0-.523.556-.785,1.112-.785H380.8c.54,0,.768.572.768,1.1,0,.6-.278,1.128-.768,1.128H376.42Z" transform="translate(1281.375 69.936)" fill="#fff"/>
  </g>
</svg>
