<svg id="Group_81" data-name="Group 81" xmlns="http://www.w3.org/2000/svg" width="107.127" height="79.918" viewBox="0 0 107.127 79.918">
  <path id="Path_114" data-name="Path 114" d="M75.783,1091.884c1.689-3.5,3.354-6.956,5.024-10.411q1.947-4.028,3.9-8.051c.251-.518.573-1.139-.257-1.349-.3-.076-.986.385-1.16.74q-4.7,9.535-9.306,19.111c-.6,1.244-.337,1.6,1.131,1.6q13.325.006,26.65,0a4.8,4.8,0,0,1,4.3,1.993c1.851,2.743-.136,6.083-3.736,6.327-.32.022-.643.008-.965.008H67c-4.282,0-6.317-2.891-4.561-6.483q6.487-13.267,12.985-26.531c2.021-4.106,5.589-6.14,10.467-6.172a49.277,49.277,0,0,1,7.687.3c5.976.908,12.007,6.328,10.691,14.391-.746,4.57-1.7,9.112-2.511,13.673a1.108,1.108,0,0,1-1.252,1.047q-12.179,0-24.356-.023C76.078,1092.055,76.011,1091.994,75.783,1091.884Z" transform="translate(-60.666 -1036.326)" fill="#2d0861"/>
  <path id="Path_115" data-name="Path 115" d="M117.49,1147.187q-22.185,0-44.37,0c-1.585,0-1.746-.144-1.748-1.566,0-1.25.018-2.5.011-3.75,0-.773.371-1.168,1.236-1.14.281.009.563,0,.844,0H161c.441,0,.885.02,1.326,0,.936-.037,1.3.4,1.287,1.212-.018,1.177,0,2.353-.011,3.53-.013,1.251-.246,1.473-1.621,1.477q-7.174.02-14.348.02-15.071,0-30.141,0Z" transform="translate(-63.919 -1067.27)" fill="#2d0861"/>
  <path id="Path_116" data-name="Path 116" d="M167.062,1134.946H62.29c-2.2,0-2.207,0-2.193-2.048.02-2.964-.534-2.983,3.253-2.983q50.99.01,101.98,0c1.635,0,1.876.213,1.876,1.713,0,.992-.011,1.984-.021,2.977A1.787,1.787,0,0,1,167.062,1134.946Z" transform="translate(-60.079 -1062.983)" fill="#2d0861"/>
  <path id="Path_117" data-name="Path 117" d="M102.981,1019.047c7.4,0,13.35,5.421,13.361,12.165.011,6.786-5.99,12.311-13.373,12.312s-13.336-5.5-13.333-12.322C89.64,1024.443,95.567,1019.044,102.981,1019.047Z" transform="translate(-70.131 -1019.047)" fill="#2d0861"/>
  <path id="Path_118" data-name="Path 118" d="M168.628,1108.313l-1.569,1.071c-2.188-1.082-4.191-2.254-6.351-3.088-2.124-.82-4.406-1.3-6.758-1.961.168-.459.37-1.036.592-1.607q1.189-3.057,2.391-6.111c.214-.545.444-1.183-.381-1.335-.3-.056-.94.466-1.1.84-1.025,2.428-1.98,4.882-2.908,7.343a.976.976,0,0,1-1.2.744c-1.678-.158-3.362-.258-5.046-.347-.9-.048-1.227-.307-.856-1.172,1.756-4.1,3.354-8.259,5.233-12.309,1.548-3.337,4.485-5.134,8.49-5.189,4.9-.067,9.81-.086,14.711.026a20.393,20.393,0,0,1,4.289.909c.669.166.79.619.563,1.217-1.447,3.812-2.859,7.634-4.336,11.436a1.712,1.712,0,0,1-.987.778,23.192,23.192,0,0,1-2.887.757c-2.017.4-3.472,1.409-3.965,3.269C166.048,1105.484,166.8,1107.048,168.628,1108.313Z" transform="translate(-89.058 -1045.239)" fill="#2d0861"/>
  <path id="Path_119" data-name="Path 119" d="M172.741,1045.29c6.724-.04,12.049,4.823,12.079,11.029.028,6.042-5.349,11.013-11.976,11.071-6.6.057-12.164-4.98-12.183-11.036C160.64,1050.243,166,1045.33,172.741,1045.29Z" transform="translate(-94.284 -1029.447)" fill="#2d0861"/>
  <path id="Path_120" data-name="Path 120" d="M149.143,1080.054a11.178,11.178,0,0,0-6.59,6.574l-14.592-3.467a15.034,15.034,0,0,0-.8-8.731l21.9,5.211Z" transform="translate(-82.893 -1040.995)" fill="#2d0861"/>
  <path id="Path_121" data-name="Path 121" d="M185.088,1108.719c.029.365.032.653.078.936a2.164,2.164,0,0,0,1.936,1.851,2.35,2.35,0,0,0,2.471-1.014,1.471,1.471,0,0,0,.293-.6c.282-2.27,1.918-3.032,4.147-3.454,2.858-.541,5.652-1.361,8.479-2.038,1.939-.464,3.483.3,3.962,1.907s-.457,2.941-2.355,3.494a95.881,95.881,0,0,1-13.037,2.444,43.275,43.275,0,0,0-7.656,2.149c-1.976.677-3.586-.11-3.732-2.073a2.854,2.854,0,0,1,1.893-2.706C182.7,1109.264,183.872,1109.024,185.088,1108.719Z" transform="translate(-100.75 -1052.821)" fill="#2d0861"/>
  <path id="Path_122" data-name="Path 122" d="M163.249,1124.093h-1.518c-6.907,0-13.814-.017-20.72.018-1.029.006-1.557-.2-1.625-1.234a19.027,19.027,0,0,0-.524-3.039c-.175-.751.151-1.049.907-1.047,2.483.008,4.972-.072,7.445.072a33.039,33.039,0,0,1,12.077,2.658c1.416.654,2.745,1.462,4.115,2.2Z" transform="translate(-86.855 -1058.57)" fill="#2d0861"/>
  <path id="Path_123" data-name="Path 123" d="M180.037,1123.983a20.449,20.449,0,0,1,9.366-4.324,57.049,57.049,0,0,1,13.146-1.122c1.743.045,2.046.415,1.778,1.971-.138.8-.311,1.589-.42,2.39a1.132,1.132,0,0,1-1.255,1.081Q191.344,1123.991,180.037,1123.983Z" transform="translate(-100.874 -1058.467)" fill="#2d0861"/>
  <path id="Path_124" data-name="Path 124" d="M208.486,1098.412l-10.765,2.66c.251-.743.43-1.323.643-1.893.7-1.87,1.439-3.728,2.11-5.606.277-.773.657-.821,1.3-.353,2,1.467,4.02,2.918,6.018,4.39A5.6,5.6,0,0,1,208.486,1098.412Z" transform="translate(-106.888 -1048.323)" fill="#2d0861"/>
  <path id="Path_125" data-name="Path 125" d="M199.56,1079.357c-.506,1.355-.944,2.534-1.387,3.711q-2.956,7.847-5.915,15.691c-.078.208-.1.488-.261.6a6.175,6.175,0,0,1-1.037.5c-.152-.327-.5-.7-.422-.973.344-1.164.807-2.3,1.238-3.442q3-7.947,6-15.892c.065-.173.085-.417.22-.5.3-.181.7-.429.977-.365S199.411,1079.172,199.56,1079.357Z" transform="translate(-104.441 -1042.68)" fill="#2d0861"/>
</svg>
