<svg id="Group_22" data-name="Group 22" xmlns="http://www.w3.org/2000/svg" width="28.005" height="28.005" viewBox="0 0 28.005 28.005">
  <path id="Path_58" data-name="Path 58" d="M14,0A14,14,0,1,1,0,14,14,14,0,0,1,14,0Z" fill="#fff"/>
  <g id="instagram-svgrepo-com" transform="translate(5.329 5.223)">
    <path id="Path_50" data-name="Path 50" d="M573.762,326.853c1.354-.066,1.563,2.153.076,1.959C572.606,328.777,572.45,326.888,573.762,326.853Z" transform="translate(-560.87 -323.523)" fill="#fff"/>
    <path id="Path_52" data-name="Path 52" d="M235.479,231.222c7.255-.441,10.432.587,10.328,8.529.316,7.991-3.956,8.679-10.762,8.8-5.459.465-6.807-5.077-6.536-9.457C228.52,234.622,230.482,230.837,235.479,231.222Zm8.8,8.779c0-4.918-.6-7.522-6.189-7.272-1.66.163-3.6-.083-5.268.483-3.348,1.636-2.886,6.133-2.577,9.252.3,5.039,4.48,4.89,8.39,4.327C243.439,246.538,244.325,244.464,244.279,240Z" transform="translate(-228.477 -231.136)" fill="#fff"/>
    <path id="Path_53" data-name="Path 53" d="M365.636,355.812c-3.535-.181-4.626,5.643-.747,5.8A2.934,2.934,0,0,0,365.636,355.812Zm-.74-1.337c6.105-.413,5.73,8.609-.028,8.547C359.413,362.855,359.923,354.961,364.9,354.475Z" transform="translate(-356.362 -350.173)" fill="#fff"/>
    <path id="Path_54" data-name="Path 54" d="M405.794,398.991c-3.879-.16-2.792-5.984.747-5.8A2.934,2.934,0,0,1,405.794,398.991Z" transform="translate(-397.263 -387.552)" fill="#704384"/>
    <path id="Path_55" data-name="Path 55" d="M281.285,276.486c5.584-.253,6.192,2.355,6.189,7.272.042,4.463-.84,6.536-5.643,6.789-3.91.563-8.088.712-8.39-4.327-.309-3.122-.768-7.616,2.577-9.252C277.683,276.4,279.625,276.649,281.285,276.486Zm-1.1,11.256c5.755.063,6.133-8.96.028-8.547C275.232,279.681,274.721,287.575,280.18,287.742Zm4.459-7.56c1.486.194,1.278-2.021-.076-1.959C283.25,278.257,283.407,280.146,284.64,280.181Z" transform="translate(-271.67 -274.893)" fill="#704384"/>
  </g>
</svg>
