<svg xmlns="http://www.w3.org/2000/svg" width="481.197" height="1166.707" viewBox="0 0 481.197 1166.707">
  <g id="Group_113" data-name="Group 113" transform="translate(-1187.093 -3522.274)">
    <g id="Group_105" data-name="Group 105" transform="matrix(0.995, 0.105, -0.105, 0.995, 1245.445, 3514.911)">
      <path id="Path_5" data-name="Path 5" d="M563.729,203.774S539.743-46.4,241.752,50.009C184.608,68.493,54.812,85.754.892,0c0,0-21.64,136.045,148.205,179.79,0,0,112.565-117.241,230-90.7,0,0-289.82,99.973-202.742,251.643,22.417,39.1,104.975-51.326,174.1-134.463C388.752,160.2,467.649,112.15,563.729,203.774Z" transform="translate(425.174 48.728) rotate(98)" fill="#2d0861"/>
    </g>
    <g id="Group_106" data-name="Group 106" transform="matrix(-0.454, 0.891, -0.891, -0.454, 1492.831, 3586.932)">
      <path id="Path_6" data-name="Path 6" d="M7.672,103.345A71.213,71.213,0,1,0,39.077,7.681,71.256,71.256,0,0,0,7.672,103.345Z" transform="translate(0 0)" fill="#704384"/>
    </g>
    <path id="Path_150" data-name="Path 150" d="M563.729,146.352S539.743,396.53,241.752,300.116C184.608,281.633,54.812,264.372.892,350.125c0,0-21.64-136.045,148.205-179.79,0,0,112.565,117.241,230,90.7,0,0-289.82-99.973-202.742-251.643,22.417-39.1,104.975,51.326,174.1,134.463C388.752,189.922,467.649,237.976,563.729,146.352Z" transform="translate(1328.564 4688.981) rotate(-104)" fill="#2d0861"/>
  </g>
</svg>
