<svg id="Group_78" data-name="Group 78" xmlns="http://www.w3.org/2000/svg" width="110.16" height="86.221" viewBox="0 0 110.16 86.221">
  <path id="Path_94" data-name="Path 94" d="M176.64,264.219v-.836c0-3.123-.011-6.246.02-9.368a1.178,1.178,0,0,1,.445-.844,27.185,27.185,0,0,1,14.709-5.2c13.549-.494,25.732,2.926,36.116,11.125a20.7,20.7,0,0,1,1.656,1.4,3.747,3.747,0,0,1,1,4.27,4.285,4.285,0,0,1-3.622,2.755c-.268.041-.536.079-.853.126,1.793,3.361,1.451,6.852,1.07,10.355a1.262,1.262,0,0,0,.392.856c2.006,2.109,4.088,4.158,6.038,6.309a7.994,7.994,0,0,1,1.937,3.685,2.749,2.749,0,0,1-1.869,3.423,17.8,17.8,0,0,1-3.469.825c-1.084.169-1.776.695-1.664,1.71a5.111,5.111,0,0,0,.678,1.931c.925,1.6.532,2.363-1.386,2.5.363,1.6.1,2.113-1.379,2.77.221,1.109.494,2.2.651,3.307.527,3.7-1.734,6.188-5.844,6.4-1.52.077-3.051-.013-4.577-.039a14.345,14.345,0,0,0-4.678.493c-2.009.644-2.768,1.81-2.591,3.747a14.867,14.867,0,0,1,.008,2.871c-.092.883-.615,1.208-1.586,1.208q-16.643,0-33.284.015a1.627,1.627,0,0,1-1.525-.912,4.451,4.451,0,0,1-.207-3.745,19.266,19.266,0,0,1,3.877-6.778,7.849,7.849,0,0,0,1.911-6.709,15.605,15.605,0,0,0-2.259-5.431c-1.886-3-3.881-5.944-5.754-8.95a31,31,0,0,1-4.114-9.541,21.993,21.993,0,0,1,1.3-13.369c.158-.391.444-.362.764-.363h8.086Zm-3.486,19.446h13.061V271.733H173.154Zm18.878-27.743v11.926h13.02V255.921Z" transform="translate(-125.48 -233.796)" fill="#2d0861"/>
  <path id="Path_95" data-name="Path 95" d="M180.273,223.582h12.971v11.89H180.273Z" transform="translate(-130.706 -223.582)" fill="#2d0861"/>
  <path id="Path_96" data-name="Path 96" d="M135.176,243.061V231.183h12.987v11.878Z" transform="translate(-114.223 -226.771)" fill="#2d0861"/>
  <path id="Path_97" data-name="Path 97" d="M171.389,252.09v11.88h-13V252.09Z" transform="translate(-122.709 -235.543)" fill="#2d0861"/>
  <path id="Path_98" data-name="Path 98" d="M161.448,318.8V330.66h-13V318.8Z" transform="translate(-119.076 -263.53)" fill="#2d0861"/>
  <path id="Path_99" data-name="Path 99" d="M136.668,279.123v11.856H123.692V279.123Z" transform="translate(-110.026 -246.885)" fill="#2d0861"/>
  <path id="Path_100" data-name="Path 100" d="M115.151,249.405v11.824h-13V249.405Z" transform="translate(-102.154 -234.416)" fill="#2d0861"/>
</svg>
