<svg xmlns="http://www.w3.org/2000/svg" width="2887.73" height="1580.366" viewBox="0 0 2887.73 1580.366">
  <g id="Group_112" data-name="Group 112" transform="translate(529.865 -2368.128)">
    <path id="Path_516" data-name="Path 516" d="M239,0H1430c270.62,0,490,219.38,490,490V655c0,132-107,239-239,239L400,866.667C238.732,866.667,0,763.267,0,602V239C0,107,107,0,239,0Z" transform="translate(0.001 2706)" fill="#2d0861"/>
    <g id="Group_103" data-name="Group 103" transform="translate(-196.172 2347.089) rotate(3)">
      <path id="Path_79" data-name="Path 79" d="M116.367.941S221.694,240.624,1207.747,105.1s1311.725,1188.077,1289.88,1235.628S1997.5,483.313,1997.5,483.313,1617.345,14.67,630.054,382.976,116.367.941,116.367.941Z" transform="translate(0 239.976) rotate(-6)" fill="#704384"/>
      <path id="Path_78" data-name="Path 78" d="M116.367.941S221.694,240.624,1207.747,105.1s1311.725,1188.077,1289.88,1235.628S1997.5,483.313,1997.5,483.313,1617.345,14.67,630.054,382.976,116.367.941,116.367.941Z" transform="translate(2.22 261.097) rotate(-6)" fill="#2d0861"/>
    </g>
    <g id="Group_104" data-name="Group 104" transform="translate(2020.211 3989.62) rotate(-177)">
      <path id="Path_79-2" data-name="Path 79" d="M113.545,0s105.327,239.682,1091.38,104.158S2516.65,1292.235,2494.8,1339.785s-500.131-857.414-500.131-857.414S1614.524,13.728,627.233,382.035,113.545,0,113.545,0Z" transform="matrix(0.995, -0.105, 0.105, 0.995, 0, 260.885)" fill="#704384"/>
      <path id="Path_78-2" data-name="Path 78" d="M113.545,0s105.327,239.682,1091.38,104.158S2516.65,1292.234,2494.8,1339.785s-500.131-857.414-500.131-857.414S1614.524,13.728,627.233,382.035,113.545,0,113.545,0Z" transform="matrix(0.995, -0.105, 0.105, 0.995, 2.22, 282.006)" fill="#2d0861"/>
    </g>
  </g>
</svg>
