<svg xmlns="http://www.w3.org/2000/svg" width="386.479" height="513.455" viewBox="0 0 386.479 513.455">
  <g id="Group_236" data-name="Group 236" transform="translate(-4.135 -5.976)">
    <g id="Group_105" data-name="Group 105" transform="matrix(0.995, 0.105, -0.105, 0.995, 51.502, 0)">
      <path id="Path_5" data-name="Path 5" d="M457.609,165.414S438.139-37.669,196.243,40.6C149.856,55.6,44.494,69.611.724,0c0,0-17.566,110.435,120.306,145.945,0,0,91.375-95.171,186.707-73.625,0,0-235.263,81.154-164.577,204.272,18.2,31.742,85.214-41.664,141.325-109.151C315.571,130.045,379.616,91.038,457.609,165.414Z" transform="translate(345.136 39.555) rotate(98)" fill="#2d0861"/>
    </g>
    <g id="Group_106" data-name="Group 106" transform="matrix(-0.454, 0.891, -0.891, -0.454, 252.319, 58.463)">
      <path id="Path_6" data-name="Path 6" d="M6.227,83.891A57.808,57.808,0,1,0,31.721,6.235,57.843,57.843,0,0,0,6.227,83.891Z" transform="translate(0 0)" fill="#704384"/>
    </g>
  </g>
</svg>
