<svg id="Group_79" data-name="Group 79" xmlns="http://www.w3.org/2000/svg" width="83.117" height="87.361" viewBox="0 0 83.117 87.361">
  <path id="Path_101" data-name="Path 101" d="M159.977,475.579a42.8,42.8,0,0,0-4.666-1.475,13.72,13.72,0,0,0-8.579,1.052c-2.79,1.27-5.662,2.39-8.507,3.557a3.561,3.561,0,0,1-4.2-.614,3.643,3.643,0,0,1-.916-4.192,6.646,6.646,0,0,1,4.193-3.927c3.291-1.136,6.676-2.049,10.023-3.049.972-.29,1.952-.555,2.928-.832l.05-.527a20.329,20.329,0,0,0-1.856-.933c-1.622-.629-3.327-1.1-4.893-1.827-2.113-.978-2.749-2.339-2.186-4.087.584-1.814,1.806-2.622,4.237-2.183,8.419,1.518,16.808,3.174,25.205,4.791,3.281.632,6.533,1.414,9.836,1.921,4.339.667,8.534-.235,12.709-1.282a16.9,16.9,0,0,1,16.729,5.146,12.994,12.994,0,0,1-1.058,17.694,10.3,10.3,0,0,1-8.219,3.053c-3.7-.29-6.228,1.086-7.769,4.149a13.98,13.98,0,0,1-6.939,6.393c-3.342,1.57-6.448,3.556-9.674,5.336a32.344,32.344,0,0,1-4.149,2.117,5.148,5.148,0,0,1-5.512-1.189c-1.5-1.394-1.294-3.141-.252-4.632a22.684,22.684,0,0,1,3.318-3.473c1.61-1.486,3.4-2.812,4.946-4.352a3.229,3.229,0,0,0,.653-4.06c-.869-1.586-2.175-2.882-4.218-2.719-3.682.294-7.353.771-11,1.333-1.7.262-2.158,1.612-2.35,3.053-.292,2.191-.655,4.374-1.05,6.551a3.346,3.346,0,0,1-3.007,2.968,4.6,4.6,0,0,1-4.666-1.611c-1.665-2.091-1.634-4.42-1.111-6.807.509-2.323,1.071-4.636,1.561-6.962A6.724,6.724,0,0,1,153.8,479.1l6.129-2.739Z" transform="translate(-129.946 -456.424)" fill="#2d0861"/>
  <path id="Path_102" data-name="Path 102" d="M127.778,571.5c0-3.075.054-6.152-.023-9.226a2.408,2.408,0,0,1,1.807-2.607c5.326-2.034,10.6-4.183,15.95-6.157a5.018,5.018,0,0,1,3.149.046c5.238,1.941,10.4,4.063,15.62,6.038a2.618,2.618,0,0,1,2,2.817q-.1,9.226,0,18.452a2.51,2.51,0,0,1-1.806,2.628c-5.412,2.25-10.784,4.583-16.215,6.794a3.687,3.687,0,0,1-2.474.009c-5.482-2.239-10.9-4.6-16.37-6.873a2.283,2.283,0,0,1-1.659-2.372C127.808,577.869,127.776,574.685,127.778,571.5Zm34.947-7.194c-.295-.043-.429-.106-.515-.069-4.225,1.774-8.459,3.531-12.647,5.377a1.762,1.762,0,0,0-.74,1.384c-.065,3.614-.042,7.229-.046,10.843,0,1.485,0,2.97,0,4.682,4.629-1.951,8.962-3.752,13.254-5.631a1.657,1.657,0,0,0,.666-1.3c.07-2.048.029-4.1.028-6.149C162.725,570.393,162.726,567.338,162.726,564.308Zm-28.783-2.8c3.7,1.57,7.07,2.827,10.246,4.409a5.871,5.871,0,0,0,5.715-.05c3.2-1.532,6.544-2.815,10.177-4.35-4.437-1.743-8.506-3.354-12.594-4.926a1.805,1.805,0,0,0-1.153.07C142.335,558.206,138.351,559.779,133.943,561.51Z" transform="translate(-127.754 -503.146)" fill="#2d0861"/>
</svg>
