<svg xmlns="http://www.w3.org/2000/svg" width="28.005" height="28.005" viewBox="0 0 28.005 28.005">
  <path id="linkedin-round-svgrepo-com" d="M-129,145a14,14,0,0,0-14,14,14,14,0,0,0,14,14,14,14,0,0,0,14-14A14,14,0,0,0-129,145Zm-3.916,19.861h-2.729v-8.735h2.729Zm-1.439-9.829h-.022a1.515,1.515,0,0,1-1.63-1.515A1.53,1.53,0,0,1-134.336,152a1.523,1.523,0,0,1,1.646,1.515A1.523,1.523,0,0,1-134.352,155.032ZM-122,164.861h-3.1v-4.518c0-1.181-.481-1.991-1.548-1.991a1.56,1.56,0,0,0-1.477,1.072,2.064,2.064,0,0,0-.066.717v4.72h-3.069s.038-8.008,0-8.735h3.069V157.5a2.793,2.793,0,0,1,2.724-1.455c1.942,0,3.462,1.258,3.462,3.96Z" transform="translate(143 -145)" fill="#fff"/>
</svg>
