<svg id="phone-calling-svgrepo-com" xmlns="http://www.w3.org/2000/svg" width="25.317" height="25.321" viewBox="0 0 25.317 25.321">
  <path id="Path_47" data-name="Path 47" d="M19.1,17.805l-.584.615s-1.388,1.461-5.177-2.527-2.4-5.45-2.4-5.45l.368-.387a2.868,2.868,0,0,0,.2-3.6L9.889,4.166A2.568,2.568,0,0,0,5.9,3.78L3.887,5.9A2.958,2.958,0,0,0,3,8.085c.116,2.153,1.036,6.786,6.17,12.192,5.445,5.732,10.553,5.96,12.643,5.754a2.744,2.744,0,0,0,1.7-.909L25.336,23.2a2.887,2.887,0,0,0-.69-4.419L22.2,17.375A2.505,2.505,0,0,0,19.1,17.805Z" transform="translate(-3 -0.756)" fill="#fff"/>
  <path id="Path_48" data-name="Path 48" d="M13.262,2.057a.963.963,0,0,1,1.1-.795c.032.006.137.026.192.038.109.024.262.062.452.117A11.4,11.4,0,0,1,16.561,2,16.459,16.459,0,0,1,21.3,5.377a16.457,16.457,0,0,1,3.374,4.741,11.379,11.379,0,0,1,.586,1.55c.055.19.093.343.117.452.012.055.021.1.027.131l.007.04a.981.981,0,0,1-.792,1.125.962.962,0,0,1-1.1-.791c0-.014-.01-.052-.018-.087-.016-.071-.043-.184-.087-.333a9.481,9.481,0,0,0-.488-1.286,14.541,14.541,0,0,0-2.986-4.183,14.542,14.542,0,0,0-4.183-2.986,9.48,9.48,0,0,0-1.286-.488c-.149-.043-.336-.086-.407-.1A.973.973,0,0,1,13.262,2.057Z" transform="translate(-0.109 -1.25)" fill="#fff"/>
  <path id="Path_49" data-name="Path 49" d="M13.494,5.483a.962.962,0,0,1,1.189-.66l-.264.925.264-.925h.008l.01,0,.025.008.072.024c.058.02.134.049.227.089a6.615,6.615,0,0,1,.756.389,12.821,12.821,0,0,1,2.491,1.995,12.817,12.817,0,0,1,1.995,2.491,6.624,6.624,0,0,1,.389.755c.04.093.069.169.089.227.01.029.018.053.024.072l.008.025,0,.01v.006s0,0-.924.266l.925-.264a.962.962,0,0,1-1.845.541l0-.014c-.007-.019-.021-.057-.045-.113a4.7,4.7,0,0,0-.277-.534,10.924,10.924,0,0,0-1.7-2.11,10.923,10.923,0,0,0-2.11-1.7,4.7,4.7,0,0,0-.534-.277c-.055-.024-.093-.038-.113-.045l-.014,0A.962.962,0,0,1,13.494,5.483Z" transform="translate(-0.05 -0.253)" fill="#fff" fill-rule="evenodd"/>
</svg>
