<svg id="Group_80" data-name="Group 80" xmlns="http://www.w3.org/2000/svg" width="87.451" height="84.488" viewBox="0 0 87.451 84.488">
  <path id="Path_103" data-name="Path 103" d="M93.357,932.477q-12.279,0-24.558,0c-1.12,0-1.44-.282-1.426-1.314.036-2.725-.19-5.458.58-8.149,1.785-6.241,7.6-10.967,14.57-11.835a11.114,11.114,0,0,1,6.336.86,9.9,9.9,0,0,0,8.71.077c2.979-1.439,5.922-1.256,8.932-.469,7.662,2,12.713,8.2,12.786,15.6.012,1.235.007,2.47.006,3.7,0,1.3-.242,1.527-1.636,1.528Z" transform="translate(-49.589 -847.989)" fill="#2d0861"/>
  <path id="Path_104" data-name="Path 104" d="M104.345,838.773c8.837.058,15.866,6.6,15.791,14.7-.072,7.866-7.291,14.387-15.866,14.333-8.87-.056-15.9-6.614-15.83-14.758C88.51,845.177,95.709,838.716,104.345,838.773Z" transform="translate(-60.546 -807.451)" fill="#2d0861"/>
  <path id="Path_105" data-name="Path 105" d="M112.6,780.724c-4.97-1.784-6.839-4.263-6.069-7.988a7.376,7.376,0,0,1,14.156,0c.761,3.727-1.115,6.215-6.08,7.991v2.408q0,4.81,0,9.62c0,.629-.232,1.132-1,1.127s-1.013-.5-1.01-1.128c0-.184,0-.368,0-.552v-11.48Z" transform="translate(-69.867 -767.437)" fill="#2d0861"/>
  <path id="Path_106" data-name="Path 106" d="M170,897.8l-10.783-5.685a9.4,9.4,0,0,1-.885-.487c-.471-.318-.669-.74-.324-1.229a.966.966,0,0,1,1.345-.3q2.174,1.124,4.335,2.269,3.649,1.923,7.281,3.845a7.886,7.886,0,0,1,10.462-.964A6.287,6.287,0,0,1,183,903.674a7.641,7.641,0,0,1-8.987,2.774A6.582,6.582,0,0,1,170,897.8Z" transform="translate(-96.634 -836.154)" fill="#2d0861"/>
  <path id="Path_107" data-name="Path 107" d="M171.024,821.609l-10.379,5.483c-.4.21-.791.426-1.191.631-.744.381-1.361.316-1.662-.168-.312-.5-.085-1.009.655-1.4,3.548-1.879,7.089-3.769,10.659-5.613.71-.367.891-.69.672-1.452-1.033-3.6,1.614-7.385,5.538-8.031,4.246-.7,8.083,1.795,8.615,5.6a6.466,6.466,0,0,1-3.876,6.794,7.745,7.745,0,0,1-8.417-1.254C171.437,822.013,171.246,821.821,171.024,821.609Z" transform="translate(-96.542 -791.84)" fill="#2d0861"/>
  <path id="Path_108" data-name="Path 108" d="M44.586,897.793c1.068,4.172-.452,7.355-4.1,8.673a7.572,7.572,0,0,1-8.951-2.848,6.266,6.266,0,0,1,1.79-8.513,7.857,7.857,0,0,1,10.249,1.114l10.193-5.37c.448-.236.9-.458,1.346-.7a1,1,0,0,1,1.429.231c.374.539.155,1.014-.435,1.327-1.887,1-3.78,1.992-5.669,2.99C48.5,895.718,46.567,896.745,44.586,897.793Z" transform="translate(-30.456 -836.159)" fill="#2d0861"/>
  <path id="Path_109" data-name="Path 109" d="M43.342,821.562a7.687,7.687,0,0,1-8.47,2.055,6.465,6.465,0,0,1-4.342-7.689,7.229,7.229,0,0,1,7.709-5.044c3.759.416,6.477,3.069,6.523,6.419a6.2,6.2,0,0,1-.265,2.017c-.189.57.005.765.5,1.025,3.538,1.843,7.057,3.717,10.583,5.58,1.053.556,1.316.973.972,1.552-.334.561-.933.576-1.942.043Z" transform="translate(-30.325 -791.784)" fill="#2d0861"/>
  <path id="Path_110" data-name="Path 110" d="M45.56,857.963q0,3.943,0,7.886c0,.908-.357,1.383-1.02,1.37-.643-.012-.987-.461-.987-1.322q0-7.925,0-15.85c0-.1,0-.21,0-.315a1,1,0,1,1,2,.03c.013,1.156,0,2.313,0,3.47Z" transform="translate(-37.203 -813.038)" fill="#2d0861"/>
  <path id="Path_111" data-name="Path 111" d="M145.2,787.306A1.035,1.035,0,0,1,146.8,786.3c1.81.855,3.6,1.737,5.408,2.6q5.143,2.471,10.29,4.933c.607.289.983.665.714,1.316-.231.559-.886.663-1.684.28q-3.621-1.733-7.235-3.479c-2.717-1.307-5.439-2.6-8.144-3.929A5.272,5.272,0,0,1,145.2,787.306Z" transform="translate(-90.063 -777.933)" fill="#2d0861"/>
  <path id="Path_112" data-name="Path 112" d="M60.023,794.466a4.336,4.336,0,0,1,.871-.685c3.468-1.689,6.953-3.35,10.431-5.021,1.7-.817,3.4-1.632,5.1-2.461.609-.3,1.157-.347,1.568.247.344.5.093,1.016-.668,1.382q-7.806,3.752-15.619,7.491C60.789,795.856,60.017,795.529,60.023,794.466Z" transform="translate(-45.769 -777.896)" fill="#2d0861"/>
  <path id="Path_113" data-name="Path 113" d="M195.447,857.888c0-2.706-.007-5.411,0-8.117,0-.843.694-1.365,1.348-.971a1.468,1.468,0,0,1,.58,1.091c.054,2.126.026,4.255.026,6.383q0,4.61,0,9.22a8.273,8.273,0,0,1-.035.866.863.863,0,0,1-.976.8.846.846,0,0,1-.936-.843c-.029-.84-.011-1.681-.012-2.522Q195.447,860.843,195.447,857.888Z" transform="translate(-116.192 -813.001)" fill="#2d0861"/>
</svg>
