<svg xmlns="http://www.w3.org/2000/svg" viewBox="0 0 500 500">
  <path d="M389.9,311.5c-14.7,36.9-42.6,74.2-99.9,93.7c-54.8,18.7-114.5,9.1-156.8-32.5c-48.3-47.6-55.5-119.2-24.8-177.9
  c29.8-57,98.3-90.3,161.8-75.1c60.4,14.4,101.4,64.1,113.9,125.1c7.6,37,6.1,75.5,11.2,82.8c5.1,7.3,24-20.4,28.6-33.8
  c13.8-40.4,20.1-83.4,11.1-125C422.9,109.1,349.9,41.5,247.4,20.7c-85.5-17.3-176.8,24.9-217.9,106C-13.7,214.5,5.7,316.4,64.2,385.6
  c68.4,81,202.6,108.2,289.7,57c60.9-35.9,96.5-110.1,89.2-182.6c-2.3-22.5-9.2-44.3-16.8-65.7c-16.7-46.9-62.2-83.7-112.9-85
  c-48.5-1.3-94.2,28.7-110.6,72.3c-16.5,43.6-4.2,97.8,28.8,129.2c34.7,33,89.9,39.5,131.9,15.4c42.2-24.2,64.9-73.4,56.1-121.9
  c-8-44-46.9-81.5-92.5-83.2c-35.1-1.3-69.5,17.5-85.1,47.6c-13.2,25.6-10.3,59.1,7.7,81.8c18.7,23.6,52,32.4,80.1,20
  c28.6-12.6,45-45.9,39.6-76.3" 
  fill="none" stroke="#2d0861" stroke-width="10"/>
</svg>
