<svg id="whatsapp-svgrepo-com" xmlns="http://www.w3.org/2000/svg" width="24.851" height="25.02" viewBox="0 0 24.851 25.02">
  <path id="Path_44" data-name="Path 44" d="M16.21,12.845c-.317-.15-1.835-.9-2.118-1.017s-.484-.15-.7.167-.8,1-.984,1.218-.35.234-.667,0a8.557,8.557,0,0,1-2.485-1.535A8.757,8.757,0,0,1,7.586,9.525c-.183-.3,0-.467.133-.634s.3-.35.467-.534a2.319,2.319,0,0,0,.3-.517.634.634,0,0,0,0-.55c0-.15-.7-1.668-.967-2.285s-.5-.534-.684-.534H6.168a1.2,1.2,0,0,0-.834.384A3.5,3.5,0,0,0,4.25,7.441,5.988,5.988,0,0,0,5.5,10.693a13.878,13.878,0,0,0,5.321,4.67c.734.317,1.3.5,1.751.651a4.22,4.22,0,0,0,1.952.117,3.219,3.219,0,0,0,2.1-1.468A2.786,2.786,0,0,0,16.81,13.2,1.731,1.731,0,0,0,16.21,12.845Z" transform="translate(1.855 2.151)" fill="#fff"/>
  <path id="Path_45" data-name="Path 45" d="M21.773,4.136A12.276,12.276,0,0,0,12.95.5,12.41,12.41,0,0,0,2.258,19.1L.59,25.52l6.572-1.668a12.343,12.343,0,0,0,5.921,1.5H12.95A12.41,12.41,0,0,0,21.773,4.136ZM12.95,23.218A10.208,10.208,0,0,1,7.7,21.767l-.367-.217-3.9,1.017,1.034-3.8-.234-.384a10.3,10.3,0,1,1,8.724,4.837Z" transform="translate(-0.59 -0.5)" fill="#fff"/>
</svg>
