<svg xmlns="http://www.w3.org/2000/svg" width="27.885" height="27.893" viewBox="0 0 27.885 27.893">
  <g id="X_icon_-_Gray" transform="translate(0 0)">
    <path id="path2" d="M12.7.211A13.962,13.962,0,0,0,.813,18.026,13.944,13.944,0,1,0,17.452.537,13.665,13.665,0,0,0,12.7.211Zm.186,8.66c1.193,1.585,2.2,2.89,2.237,2.89s1.277-1.305,2.741-2.89l2.675-2.89h1.519l-.326.345c-.186.2-1.4,1.51-2.694,2.917s-2.564,2.778-2.816,3.03l-.447.475,3.5,4.652c1.92,2.564,3.5,4.689,3.5,4.727a20.478,20.478,0,0,1-2.536.074l-2.545-.009-2.368-3.169a19.7,19.7,0,0,0-2.47-3.076c-.056.047-1.38,1.473-2.946,3.169L7.058,22.2H6.34a2.78,2.78,0,0,1-.727-.047c0-.028,1.482-1.65,3.29-3.6s3.291-3.58,3.309-3.607-1.472-2.061-3.29-4.494S5.613,6.028,5.613,6.009s1.146-.028,2.554-.028h2.554Zm0,0" transform="translate(-0.254 -0.134)" fill="#fff"/>
    <path id="path4" d="M41.3,37.631c.037.065,2.386,3.216,5.2,6.982l5.127,6.861,1.146.01c.709,0,1.138-.037,1.119-.093s-2.349-3.2-5.182-6.991l-5.165-6.9H42.393c-.96,0-1.156.019-1.09.131Zm0,0" transform="translate(-33.64 -30.533)" fill="#fff"/>
  </g>
</svg>
