<svg xmlns="http://www.w3.org/2000/svg" width="27.781" height="27.781" viewBox="0 0 27.781 27.781">
  <g id="youtube-round-svgrepo-com" transform="translate(0 0)">
    <path id="Path_56" data-name="Path 56" d="M78.9,357.239l4.547-2.67L78.9,351.9Z" transform="translate(-66.86 -340.673)" fill="#fff"/>
    <path id="Path_57" data-name="Path 57" d="M-129.109,145A13.89,13.89,0,0,0-143,158.891a13.89,13.89,0,0,0,13.891,13.891,13.89,13.89,0,0,0,13.891-13.891A13.89,13.89,0,0,0-129.109,145Zm6.945,16.376h0a2.344,2.344,0,0,1-2.393,2.393h-9.1a2.344,2.344,0,0,1-2.393-2.393v-4.965a2.344,2.344,0,0,1,2.393-2.393h9.1a2.344,2.344,0,0,1,2.393,2.393Z" transform="translate(143 -145)" fill="#fff"/>
  </g>
</svg>
